<svg id="Layer_1" data-name="Layer 1" xmlns="http://www.w3.org/2000/svg" viewBox="0 0 14 14"><defs><style>.cls-1{fill-rule:evenodd;}</style></defs><title>delete-icn</title><g id="Page-1"><g id="Ecommerce"><path id="Icon" class="cls-1" d="M12.39.33,7.46,5.27a.52.52,0,0,1-.73,0L1.61.15a.52.52,0,0,0-.73,0L.15.88a.52.52,0,0,0,0,.73L5.27,6.73a.52.52,0,0,1,0,.73L.33,12.39a.52.52,0,0,0,0,.73l.73.73a.53.53,0,0,0,.74,0L6.73,8.92a.52.52,0,0,1,.73,0l4.74,4.75a.53.53,0,0,0,.74,0l.73-.73a.53.53,0,0,0,0-.74L8.92,7.46a.52.52,0,0,1,0-.73L13.85,1.8a.53.53,0,0,0,0-.74L13.12.33a.52.52,0,0,0-.73,0" transform="translate(0)"/></g></g></svg>